# xmcd
#
# Track frame offsets:
#	150
#	13795
#	27152
#	42952
#	57410
#	74307
#	93906
#	108565
#	125082
#	141209
#	156371
#	174505
#	187917
#	202176
#
# Disc length: 2909 seconds
#
# Revision: 1
# Processed by: cddbd v1.5.2PL0 Copyright (c) Steve Scherf et al.
# Submitted via: EZCDAudioConverter 1.0.4.1
#
DISCID=c90b5b0e
DTITLE=Andreas Gabalier - Home Sweet Home Live
DYEAR=2014
DGENRE=
TTITLE0=Proud Mary feat. Stefanie Heinzmann
TTITLE1=Great Balls of Fire
TTITLE2=500 Miles feat. Samu Haber
TTITLE3=You Shook e All Night Long feat. Jeanette
TTITLE4=Jailhouse Rock feat. The Baseballs
TTITLE5=Vergiss die Heimat nie (2014)
TTITLE6=Lucky Day
TTITLE7=What if feat. The Boss Hoss
TTITLE8=Heute Nacht
TTITLE9=Can´t say no feat. Rea Garvey
TTITLE10=Amoi seg' ma uns wieder feat. Xavier Naidoo
TTITLE11=Die Liste
TTITLE12=Umbrella feat. The Baseballs
TTITLE13=Dieser Weg
EXTD=
EXTT0=
EXTT1=
EXTT2=
EXTT3=
EXTT4=
EXTT5=
EXTT6=
EXTT7=
EXTT8=
EXTT9=
EXTT10=
EXTT11=
EXTT12=
EXTT13=
PLAYORDER=
